<svg xmlns="http://www.w3.org/2000/svg" viewBox="0 0 20 20" fill="none"><mask id="a"><rect width="20" height="20" rx="0" ry="0" fill="#fff"/></mask><g mask="url(#a)"><path d="M6 4V3h8v1h1v1h1v3h1v3h-1v2h-1v1h-1v1h-2v1h4v1h1v3H3v-3h1v-1h4v-1H6v-1H5v-1H4v-2H3V8h1V5h1V4h1Z" fill="rgba(255, 219, 172, 1)"/><path d="M6 3v1H5v1H4v3H3v3h1v2h1v1h1v1h8v-1h1v-1h1v-2h1V8h-1V5h-1V4h-1V3H6Z" fill="#fff" fill-opacity=".1"/><g fill-rule="evenodd" clip-rule="evenodd"><path d="M6 7h1v2H5V8h1V7Zm7 0h1v2h-2V8h1V7Z" fill="#fff"/><path d="M7 7v1H6v1h2V7H7Zm7 0v1h-1v1h2V7h-1Z" fill="#000"/><path d="M7 7v1h1V7H7ZM6 8v1h1V8H6Zm8-1v1h1V7h-1Zm-1 1v1h1V8h-1Z" fill="#fff" fill-opacity=".5"/></g><g fill-rule="evenodd" clip-rule="evenodd"><path d="M6 5h3v2H8V6H6V5Zm5 0h3v1h-2v1h-1V5Z" fill="rgba(97, 28, 23, 1)"/><path d="M6 5h3v2H8V6H6V5Zm5 0h3v1h-2v1h-1V5Z" fill="#000" fill-opacity=".1"/></g><path d="M8 12h3v1H8v-1Z" fill="rgba(222, 15, 13, 1)"/><path d="M2 15h2V5h12v10h2V4h-1V3h-1V2H4v1H3v1H2v11Z" fill="rgba(97, 28, 23, 1)"/><path d="M3 20v-3h1v-1h4v1h4v-1h4v1h1v3H3Z" fill="rgba(255, 238, 173, 1)"/></g></svg>