<svg xmlns="http://www.w3.org/2000/svg" fill="none" viewBox="0 0 20 20">
      <mask id="a">
        <rect width="20" height="20" fill="#fff" rx="0" ry="0"></rect>
      </mask>
      <g mask="url(#a)">
        <path
          fill="rgba(245, 207, 160, 1)"
          d="M6 4V3h8v1h1v1h1v3h1v3h-1v2h-1v1h-1v1h-2v1h4v1h1v3H3v-3h1v-1h4v-1H6v-1H5v-1H4v-2H3V8h1V5h1V4h1z"
        ></path>
        <path
          fill="#fff"
          fillOpacity="0.1"
          d="M6 3v1H5v1H4v3H3v3h1v2h1v1h1v1h8v-1h1v-1h1v-2h1V8h-1V5h-1V4h-1V3H6z"
        ></path>
        <g fillRule="evenodd" clipRule="evenodd">
          <path fill="#fff" d="M5 8h3v1H5V8zm7 0h3v1h-3V8z"></path>
          <path fill="#000" d="M6 8h1v1H6V8zm7 0h1v1h-1V8z"></path>
        </g>
        <g fillRule="evenodd" clipRule="evenodd">
          <path
            fill="rgba(96, 58, 20, 1)"
            d="M4 7V5h3v1H5v1H4zm12-2v2h-1V6h-2V5h3z"
          ></path>
          <path
            fill="#000"
            fillOpacity="0.1"
            d="M4 7V5h3v1H5v1H4zm12-2v2h-1V6h-2V5h3z"
          ></path>
        </g>
        <path fill="rgba(210, 153, 133, 1)" d="M9 12v2h2v-1h-1v-1H9z"></path>
        <path
          fill="#fff"
          fillOpacity="0.2"
          d="M11 14v-1h-1v-1H9v1h1v1h1z"
        ></path>
        <path
          fill="rgba(96, 58, 20, 1)"
          d="M2 14h2V7h1V6h1V5h1V4h1V3h6v1h1v1h1v9h2V3h-1V2h-1V1H4v1H3v1H2v11z"
        ></path>
        <path
          fill="rgba(255, 217, 105, 1)"
          d="M3 20v-3h1v-1h4v1h1v1h2v-1h1v-1h4v1h1v3H3z"
        ></path>
        <path
          fill="#fff"
          fillOpacity="0.2"
          d="M3 20v-3h1v-1h2v1h1v1h1v1h4v-1h1v-1h1v-1h2v1h1v3H3z"
        ></path>
      </g>
    </svg>