<svg xmlns="http://www.w3.org/2000/svg" fill="none" viewBox="0 0 20 20">
      <mask id="avatarsRadiusMask">
        <rect width="20" height="20" fill="#fff" rx="0" ry="0"></rect>
      </mask>
      <g mask="url(#avatarsRadiusMask)">
        <path
          fill="rgba(182, 134, 85, 1)"
          d="M6 4V3h8v1h1v1h1v3h1v3h-1v2h-1v1h-1v1h-2v1h4v1h1v3H3v-3h1v-1h4v-1H6v-1H5v-1H4v-2H3V8h1V5h1V4h1z"
        ></path>
        <path
          fill="#fff"
          fillOpacity="0.1"
          d="M6 3v1H5v1H4v3H3v3h1v2h1v1h1v1h8v-1h1v-1h1v-2h1V8h-1V5h-1V4h-1V3H6z"
        ></path>
        <g fillRule="evenodd" clipRule="evenodd">
          <path fill="#fff" d="M5 7h3v2H5V7zm7 0h3v2h-3V7z"></path>
          <path fill="#000" d="M7 8h1v1H7V8zm5 0h1v1h-1V8z"></path>
        </g>
        <g fillRule="evenodd" clipRule="evenodd">
          <path
            fill="rgba(40, 21, 10, 1)"
            d="M4 7V5h3v1H5v1H4zm12-2v2h-1V6h-2V5h3z"
          ></path>
          <path
            fill="#000"
            fillOpacity="0.1"
            d="M4 7V5h3v1H5v1H4zm12-2v2h-1V6h-2V5h3z"
          ></path>
        </g>
        <path fill="rgba(222, 15, 13, 1)" d="M9 12v1H8v1h4v-1h-1v-1H9z"></path>
        <path fill="rgba(40, 21, 10, 1)" d="M5 5h10V4h-1V3H6v1H5v1z"></path>
        <g fillRule="evenodd" clipRule="evenodd">
          <path
            fill="#fff"
            d="M5 8h3v1H5V8zm7 0h3v1h-3V8z"
            opacity="0.2"
          ></path>
          <path
            fill="#fff"
            d="M7 8h1v1H7V8zm7 0h1v1h-1V8z"
            opacity="0.2"
          ></path>
          <path
            fill="rgba(50, 50, 50, 1)"
            d="M5 8v1h3V8H5zM3 7v1h1v1h1v1h3V9h1V8h2v1h1v1h3V9h1V8h1V7H3zm9 1v1h3V8h-3z"
          ></path>
          <path
            fill="#fff"
            fillOpacity="0.2"
            d="M3 7v1h1V7H3zm6 0v1h2V7H9zm7 0v1h1V7h-1z"
          ></path>
        </g>
        <path
          fill="rgba(209, 17, 65, 1)"
          d="M3 20v-3h1v-1h4.027L8 15h4l.011 1H16v1h1v3H3z"
        ></path>
        <path
          fill="#fff"
          fillOpacity="0.2"
          d="M3 20v-3h1v-1h12v1h1v3H3z"
        ></path>
        <path fill="#fff" fillOpacity="0.2" d="M12 20v-1h3v1h-3z"></path>
      </g>
    </svg>