<svg xmlns:dc="http://purl.org/dc/elements/1.1/" xmlns:cc="http://creativecommons.org/ns#" xmlns:rdf="http://www.w3.org/1999/02/22-rdf-syntax-ns#" xmlns:svg="http://www.w3.org/2000/svg" xmlns="http://www.w3.org/2000/svg" viewBox="0 0 20 20" fill="none"><metadata><rdf:RDF><cc:Work><dc:format>image/svg+xml</dc:format><dc:type rdf:resource="http://purl.org/dc/dcmitype/StillImage"/><dc:title>Pixel Art</dc:title><dc:creator><cc:Agent><dc:title>Plastic Jam</dc:title></cc:Agent></dc:creator><cc:license rdf:resource="https://github.com/dicebear/dicebear/blob/main/packages/%40dicebear/pixel-art/LICENSE"/></cc:Work></rdf:RDF></metadata><mask id="avatarsRadiusMask"><rect width="20" height="20" rx="0" ry="0" x="0" y="0" fill="#fff"/></mask><g mask="url(#avatarsRadiusMask)"><path d="M6 4V3h8v1h1v1h1v3h1v3h-1v2h-1v1h-1v1h-2v1h4v1h1v3H3v-3h1v-1h4v-1H6v-1H5v-1H4v-2H3V8h1V5h1V4h1Z" fill="rgba(203, 158, 110, 1)"/><path d="M6 3v1H5v1H4v3H3v3h1v2h1v1h1v1h8v-1h1v-1h1v-2h1V8h-1V5h-1V4h-1V3H6Z" fill="#fff" fill-opacity=".1"/><g><path opacity=".9" d="M4 10v3h1v1h1v1h8v-1h1v-1h1v-3h-2v1H6v-1H4Z" fill="rgba(59, 23, 14, 1)"/></g><g><g fill-rule="evenodd" clip-rule="evenodd"><path d="M6 7h1v1h1v1H6V7Zm6 0h1v1h1v1h-2V7Z" fill="#fff"/><path d="M6 8h1v1H6V8Zm6 0h1v1h-1V8Z" fill="#000"/></g></g><g><g fill-rule="evenodd" clip-rule="evenodd"><path d="M7 5v1H5v1H4V6h1V5h2Zm6 0h2v1h1v1h-1V6h-2V5Z" fill="rgba(59, 23, 14, 1)"/><path d="M7 5v1H5v1H4V6h1V5h2Zm6 0h2v1h1v1h-1V6h-2V5Z" fill="#000" fill-opacity=".1"/></g></g><g><path d="M10 12v1H9v1h2v-2h-1Z" fill="rgba(227, 93, 106, 1)"/></g><g><path fill-rule="evenodd" clip-rule="evenodd" d="M3 14h2v-1H4v-2H3v3Zm12 0h2v-3h-1v2h-1v1Zm2-6V3h-1V2H4v1H3v5h1V5h1V4h1V3h8v1h1v1h1v3h1Z" fill="rgba(59, 23, 14, 1)"/></g><g><g fill="rgba(169, 169, 169, 1)"><path d="M4 11H2v2h2v-2ZM18 11h-2v2h2v-2Z"/></g></g><g><path d="M3 8V7h1V6h2v1h1V6h2v1h2V6h2v1h1V6h2v1h1v1h-1v1h-1v1h-1v1h-1v-1h-1V9h-1V8H9v1H8v1H7v1H6v-1H5V9H4V8H3Z" fill="rgba(75, 75, 75, 1)"/><path fill-rule="evenodd" clip-rule="evenodd" d="M3 7v1h1V7h1V6H4v1H3Zm5-1v1h1v1h2V7h1V6h-1v1H9V6H8Zm7 0v1h1v1h1V7h-1V6h-1Z" fill="#fff" fill-opacity=".2"/></g><g/><g><path fill-rule="evenodd" clip-rule="evenodd" d="M4 16v4h4v-1H7v-1H6v-1H5v-1H4Zm12 0v4h-4v-1h1v-1h1v-1h1v-1h1Z" fill="rgba(255, 111, 105, 1)"/></g></g></svg>
