<svg xmlns="http://www.w3.org/2000/svg" viewBox="0 0 20 20" fill="none"><mask id="a"><rect width="20" height="20" rx="0" ry="0" fill="#fff"/></mask><g mask="url(#a)"><path d="M6 4V3h8v1h1v1h1v3h1v3h-1v2h-1v1h-1v1h-2v1h4v1h1v3H3v-3h1v-1h4v-1H6v-1H5v-1H4v-2H3V8h1V5h1V4h1Z" fill="rgba(203, 158, 110, 1)"/><path d="M6 3v1H5v1H4v3H3v3h1v2h1v1h1v1h8v-1h1v-1h1v-2h1V8h-1V5h-1V4h-1V3H6Z" fill="#fff" fill-opacity=".1"/><g fill-rule="evenodd" clip-rule="evenodd"><path d="M6 7h1v2H5V8h1V7Zm7 0h1v2h-2V8h1V7Z" fill="#fff"/><path d="M7 7v1H6v1h2V7H7Zm7 0v1h-1v1h2V7h-1Z" fill="#000"/><path d="M7 7v1h1V7H7ZM6 8v1h1V8H6Zm8-1v1h1V7h-1Zm-1 1v1h1V8h-1Z" fill="#fff" fill-opacity=".5"/></g><g fill-rule="evenodd" clip-rule="evenodd"><path d="M8 4v1H7v1H5V5h2V4h1Zm4 0h1v1h2v1h-2V5h-1V4Z" fill="rgba(96, 48, 21, 1)"/><path d="M8 4v1H7v1H5V5h2V4h1Zm4 0h1v1h2v1h-2V5h-1V4Z" fill="#000" fill-opacity=".1"/></g><path d="M8 12v1h1v1h2v-1H9v-1H8Z" fill="rgba(227, 93, 106, 1)"/><path d="M1 7h1v5h1v1h1V7h1V6h1V4h1V3h6v1h1v1h1v1h1v7h1v-2h1V7h-1V6h1V4h-1v1h-1V3h1V2h-1v1h-1V2h-1V1h-1V0h-1v1H6V0H5v1H4V0H3v1h1v2H3V2H2v1h1v1H2v2H1v1Z" fill="rgba(96, 48, 21, 1)"/><path d="M3 20v-3h1v-1h4v1h4v-1h4v1h1v3H3Z" fill="rgba(3, 57, 108, 1)"/><path fill-rule="evenodd" clip-rule="evenodd" d="M3 19h14v1H3v-1Zm0-2h14v1H3v-1Z" fill="#fff" fill-opacity=".2"/></g></svg>