<svg xmlns="http://www.w3.org/2000/svg" viewBox="0 0 20 20" fill="none"><mask id="a"><rect width="20" height="20" rx="0" ry="0" fill="#fff"/></mask><g mask="url(#a)"><path d="M6 4V3h8v1h1v1h1v3h1v3h-1v2h-1v1h-1v1h-2v1h4v1h1v3H3v-3h1v-1h4v-1H6v-1H5v-1H4v-2H3V8h1V5h1V4h1Z" fill="rgba(255, 219, 172, 1)"/><path d="M6 3v1H5v1H4v3H3v3h1v2h1v1h1v1h8v-1h1v-1h1v-2h1V8h-1V5h-1V4h-1V3H6Z" fill="#fff" fill-opacity=".1"/><g fill-rule="evenodd" clip-rule="evenodd"><path d="M5 7h3v3H5V7Zm7 0h3v3h-3V7Z" fill="#fff"/><path d="M5 8h2v1H5V8Zm7 0h2v1h-2V8Z" fill="#000"/><path d="M5 8h1v1H5V8Zm7 0h1v1h-1V8Z" fill="#fff" fill-opacity=".7"/></g><g fill-rule="evenodd" clip-rule="evenodd"><path d="M7 5v1H5v1H4V6h1V5h2Zm7 0v1h-2v1h-1V6h1V5h2Z" fill="rgba(96, 48, 21, 1)"/><path d="M7 5v1H5v1H4V6h1V5h2Zm7 0v1h-2v1h-1V6h1V5h2Z" fill="#000" fill-opacity=".1"/></g><path d="M9 13v1h2v-1h1v-1h-1v1H9Z" fill="rgba(210, 153, 133, 1)"/><path d="M4 7h1V5h1V4h2v1h1v1h2V5h1V4h2v1h1v2h1V5h-1V4h-1V3H6v1H5v1H4v2Z" fill="rgba(96, 48, 21, 1)"/><path d="M5 16H4v1H3v3h14v-3h-1v-1h-3v1H7v-1H5Z" fill="rgba(0, 177, 89, 1)"/><path d="M10 20v-1h3v1h-3Z" fill="#fff" fill-opacity=".5"/><path fill-rule="evenodd" clip-rule="evenodd" d="M5 16H4v1H3v3h1v-1h1v-3Zm1 0h1v1h6v-1h1v2H6v-2Zm9 0h1v1h1v3h-1v-1h-1v-3Z" fill="#fff" fill-opacity=".8"/></g></svg>