<svg xmlns="http://www.w3.org/2000/svg" viewBox="0 0 20 20" fill="none"><mask id="a"><rect width="20" height="20" rx="0" ry="0" fill="#fff"/></mask><g mask="url(#a)"><path d="M6 4V3h8v1h1v1h1v3h1v3h-1v2h-1v1h-1v1h-2v1h4v1h1v3H3v-3h1v-1h4v-1H6v-1H5v-1H4v-2H3V8h1V5h1V4h1Z" fill="rgba(203, 158, 110, 1)"/><path d="M6 3v1H5v1H4v3H3v3h1v2h1v1h1v1h8v-1h1v-1h1v-2h1V8h-1V5h-1V4h-1V3H6Z" fill="#fff" fill-opacity=".1"/><g fill-rule="evenodd" clip-rule="evenodd"><path d="M6 8h1v1H6V8Zm7 0h1v1h-1V8Z" fill="#fff"/><path d="M7 8h1v1H7V8Zm5 0h1v1h-1V8Z" fill="#000"/></g><g fill-rule="evenodd" clip-rule="evenodd"><path d="M6 5h2v1h1v1H8V6H6V5Zm8 0h-2v1h-1v1h1V6h2V5Z" fill="rgba(96, 58, 20, 1)"/><path d="M6 5h2v1h1v1H8V6H6V5Zm8 0h-2v1h-1v1h1V6h2V5Z" fill="#000" fill-opacity=".1"/></g><path d="M10 12v1h1v1h1v-2h-2Z" fill="rgba(201, 130, 118, 1)"/><path d="M2 17h2v-1h4v-1H6v-1H5v-1H3.998L4 11H3V8h1V5h1V4h6V3h1v1h1V3h1v1h1v1h1v3h1v3h-1v2h-1v1h-1v1h-2v1h4v1h2V4h-1V3h-1V2h-1V1H5v1H4v1H3v1H2v13Z" fill="rgba(96, 58, 20, 1)"/><g fill-rule="evenodd" clip-rule="evenodd"><path d="M4 8H3V7h1V6h5v1h2V6h5v1h1v1h-1v2h-5V8H9v2H4V8Zm1 0V7h3v2H5V8Zm7-1v2h3V7h-3Z" fill="rgba(50, 50, 50, 1)"/><path opacity=".2" d="M5 7h3v2H5V7Zm7 0h3v2h-3V7Z" fill="#fff"/><path opacity=".2" d="M14 7h1v1h-1V7ZM7 7h1v1H7V7Z" fill="#fff"/><path d="M3 8V7h1v1H3Zm6-1v1h2V7H9Zm7 0v1h1V7h-1Z" fill="#fff" fill-opacity=".2"/></g><path d="M3 20v-3h1v-1h3v2h6v-2h3v1h1v3H3Z" fill="rgba(66, 139, 202, 1)"/><path fill-rule="evenodd" clip-rule="evenodd" d="M5 16H4v1H3v3h2v-4Zm1 0h1v2h6v-2h1v4H6v-4Zm9 0h1v1h1v3h-2v-4Z" fill="#fff" fill-opacity=".2"/></g></svg>