 <svg xmlns="http://www.w3.org/2000/svg" fill="none" viewBox="0 0 20 20">
      <mask id="avatarsRadiusMask">
        <rect width="20" height="20" fill="#fff" rx="0" ry="0"></rect>
      </mask>
      <g mask="url(#avatarsRadiusMask)">
        <path
          fill="rgba(162, 109, 61, 1)"
          d="M6 4V3h8v1h1v1h1v3h1v3h-1v2h-1v1h-1v1h-2v1h4v1h1v3H3v-3h1v-1h4v-1H6v-1H5v-1H4v-2H3V8h1V5h1V4h1z"
        ></path>
        <path
          fill="#fff"
          fillOpacity="0.1"
          d="M6 3v1H5v1H4v3H3v3h1v2h1v1h1v1h8v-1h1v-1h1v-2h1V8h-1V5h-1V4h-1V3H6z"
        ></path>
        <g fillRule="evenodd" clipRule="evenodd">
          <path fill="#fff" d="M5 7h3v3H5V7zm7 0h3v3h-3V7z"></path>
          <path fill="#000" d="M5 8h2v1H5V8zm7 0h2v1h-2V8z"></path>
          <path
            fill="#fff"
            fillOpacity="0.7"
            d="M5 8h1v1H5V8zm7 0h1v1h-1V8z"
          ></path>
        </g>
        <g fillRule="evenodd" clipRule="evenodd">
          <path
            fill="rgba(202, 177, 136, 1)"
            d="M6 5h3v2H8V6H6V5zm5 0h3v1h-2v1h-1V5z"
          ></path>
          <path
            fill="#000"
            fillOpacity="0.1"
            d="M6 5h3v2H8V6H6V5zm5 0h3v1h-2v1h-1V5z"
          ></path>
        </g>
        <path fill="rgba(201, 130, 118, 1)" d="M8 12v1h1v1h2v-1h1v-1H8z"></path>
        <path fill="rgba(202, 177, 136, 1)" d="M11 5V4h1V3H8v1h1v1h2z"></path>
        <path
          fill="rgba(50, 50, 50, 1)"
          d="M3 8V7h1V6h2v1h1V6h2v1h2V6h2v1h1V6h2v1h1v1h-1v1h-1v1h-1v1h-1v-1h-1V9h-1V8H9v1H8v1H7v1H6v-1H5V9H4V8H3z"
        ></path>
        <path
          fill="#fff"
          fillOpacity="0.2"
          fillRule="evenodd"
          d="M3 7v1h1V7h1V6H4v1H3zm5-1v1h1v1h2V7h1V6h-1v1H9V6H8zm7 0v1h1v1h1V7h-1V6h-1z"
          clipRule="evenodd"
        ></path>
        <g>
          <path
            fill="rgba(68, 197, 133, 1)"
            d="M3 20v-3h1v-1h4v1h4v-1h4v1h1v3H3z"
          ></path>
          <path
            fill="#fff"
            fillOpacity="0.2"
            fillRule="evenodd"
            d="M3 20v-1h1v1H3zm2 0v-1h1v1H5zm2 0v-1h1v1H7zm2 0v-1h1v1H9zm2 0v-1h1v1h-1zm2 0v-1h1v1h-1zm2 0v-1h1v1h-1zm1-2h1v1h-1v-1zm-2 0h1v1h-1v-1zm-2 0h1v1h-1v-1zm-2 0h1v1h-1v-1zm-2 0h1v1H8v-1zm-2 0h1v1H6v-1zm-2 0h1v1H4v-1zm-1-1h1v1H3v-1zm2 0h1v1H5v-1zm2 0h1v1H7v-1zm2 0h1v1H9v-1zm2 0h1v1h-1v-1zm2 0h1v1h-1v-1zm2 0h1v1h-1v-1zM4 16h1v1H4v-1zm2 0h1v1H6v-1zm6 0h1v1h-1v-1zm2 0h1v1h-1v-1z"
            clipRule="evenodd"
          ></path>
        </g>
      </g>
    </svg>