<svg xmlns="http://www.w3.org/2000/svg" viewBox="0 0 20 20" fill="none"><mask id="a"><rect width="20" height="20" rx="0" ry="0" fill="#fff"/></mask><g mask="url(#a)"><path d="M6 4V3h8v1h1v1h1v3h1v3h-1v2h-1v1h-1v1h-2v1h4v1h1v3H3v-3h1v-1h4v-1H6v-1H5v-1H4v-2H3V8h1V5h1V4h1Z" fill="rgba(141, 85, 36, 1)"/><path d="M6 3v1H5v1H4v3H3v3h1v2h1v1h1v1h8v-1h1v-1h1v-2h1V8h-1V5h-1V4h-1V3H6Z" fill="#fff" fill-opacity=".1"/><g fill-rule="evenodd" clip-rule="evenodd"><path d="M5 8h3v1H5V8Zm7 0h3v1h-3V8Z" fill="#fff"/><path d="M6 8h1v1H6V8Zm7 0h1v1h-1V8Z" fill="#000"/></g><g fill-rule="evenodd" clip-rule="evenodd"><path d="M6 5h2v1h1v1H8V6H6V5Zm8 0h-2v1h-1v1h1V6h2V5Z" fill="rgba(59, 23, 14, 1)"/><path d="M6 5h2v1h1v1H8V6H6V5Zm8 0h-2v1h-1v1h1V6h2V5Z" fill="#000" fill-opacity=".1"/></g><path d="M8 12v1h1v1h2v-1h1v-1H8Z" fill="rgba(210, 153, 133, 1)"/><path d="M3 11h1V9h1V8h1V7h1V6h1V5h5v1h3V5h-1V4h-1V3H5v1H4v1H3v6Z" fill="rgba(59, 23, 14, 1)"/><path d="M3 20v-3h1v-1h12v1h1v3H3Z" fill="rgba(255, 111, 105, 1)"/></g></svg>