<svg xmlns="http://www.w3.org/2000/svg" fill="none" viewBox="0 0 20 20">
      <mask id="avatarsRadiusMask">
        <rect width="20" height="20" fill="#fff" rx="0" ry="0"></rect>
      </mask>
      <g mask="url(#avatarsRadiusMask)">
        <path
          fill="rgba(255, 219, 172, 1)"
          d="M6 4V3h8v1h1v1h1v3h1v3h-1v2h-1v1h-1v1h-2v1h4v1h1v3H3v-3h1v-1h4v-1H6v-1H5v-1H4v-2H3V8h1V5h1V4h1z"
        ></path>
        <path
          fill="#fff"
          fillOpacity="0.1"
          d="M6 3v1H5v1H4v3H3v3h1v2h1v1h1v1h8v-1h1v-1h1v-2h1V8h-1V5h-1V4h-1V3H6z"
        ></path>
        <g fillRule="evenodd" clipRule="evenodd">
          <path fill="#fff" d="M6 7h1v1h1v1H6V7zm6 0h1v1h1v1h-2V7z"></path>
          <path fill="#000" d="M6 8h1v1H6V8zm6 0h1v1h-1V8z"></path>
        </g>
        <g fillRule="evenodd" clipRule="evenodd">
          <path
            fill="rgba(97, 38, 22, 1)"
            d="M6 5H4v2h1V6h1V5zm8 0h2v2h-1V6h-1V5z"
          ></path>
          <path
            fill="#000"
            fillOpacity="0.1"
            d="M6 5H4v2h1V6h1V5zm8 0h2v2h-1V6h-1V5z"
          ></path>
        </g>
        <path
          fill="rgba(222, 15, 13, 1)"
          d="M8 12v1h1v1h2v-1h1v-1h-1v-1H9v1H8z"
        ></path>
        <path fill="#fff" fillOpacity="0.2" d="M9 12v1h2v-1H9z"></path>
        <path
          fill="rgba(97, 38, 22, 1)"
          d="M6 3v1H5v1H4v3h2V7h1V6h4V5h1V4h1v1h-1v1h1v1h1v1h2V5h-1V4h-1V3H6z"
        ></path>
        <g fillRule="evenodd" clipRule="evenodd">
          <path
            fill="#fff"
            d="M5 8h3v1H5V8zm7 0h3v1h-3V8z"
            opacity="0.2"
          ></path>
          <path
            fill="#fff"
            d="M7 8h1v1H7V8zm7 0h1v1h-1V8z"
            opacity="0.2"
          ></path>
          <path
            fill="rgba(95, 112, 92, 1)"
            d="M5 8v1h3V8H5zM3 7v1h1v1h1v1h3V9h1V8h2v1h1v1h3V9h1V8h1V7H3zm9 1v1h3V8h-3z"
          ></path>
          <path
            fill="#fff"
            fillOpacity="0.2"
            d="M3 7v1h1V7H3zm6 0v1h2V7H9zm7 0v1h1V7h-1z"
          ></path>
        </g>
        <path fill="rgba(97, 79, 138, 1)" d="M4 1v2H2v2h16V3h-2V1H4z"></path>
        <g>
          <path
            fill="rgba(174, 0, 1, 1)"
            d="M3 20v-3h1v-1h4v1h4v-1h4v1h1v3H3z"
          ></path>
          <path
            fill="#fff"
            fillOpacity="0.4"
            d="M15 20h2v-3h-1v-1h-4v1H8v-1H4v1H3v3h2v-2h10v2z"
          ></path>
        </g>
      </g>
    </svg>