 <svg xmlns="http://www.w3.org/2000/svg" fill="none" viewBox="0 0 20 20">
      <mask id="avatarsRadiusMask">
        <rect width="20" height="20" fill="#fff" rx="0" ry="0"></rect>
      </mask>
      <g mask="url(#avatarsRadiusMask)">
        <path
          fill="rgba(224, 182, 135, 1)"
          d="M6 4V3h8v1h1v1h1v3h1v3h-1v2h-1v1h-1v1h-2v1h4v1h1v3H3v-3h1v-1h4v-1H6v-1H5v-1H4v-2H3V8h1V5h1V4h1z"
        ></path>
        <path
          fill="#fff"
          fillOpacity="0.1"
          d="M6 3v1H5v1H4v3H3v3h1v2h1v1h1v1h8v-1h1v-1h1v-2h1V8h-1V5h-1V4h-1V3H6z"
        ></path>
        <path
          fill="rgba(96, 58, 20, 1)"
          d="M4 11v2h1v1h1v1h8v-1h1v-1h1v-2H4z"
          opacity="0.9"
        ></path>
        <g fillRule="evenodd" clipRule="evenodd">
          <path fill="#fff" d="M6 8h1v1H6V8zm7 0h1v1h-1V8z"></path>
          <path fill="#000" d="M7 8h1v1H7V8zm5 0h1v1h-1V8z"></path>
        </g>
        <g fillRule="evenodd" clipRule="evenodd">
          <path
            fill="rgba(96, 58, 20, 1)"
            d="M4 7V6h1V5h1v1H5v1H4zm10-2h1v1h1v1h-1V6h-1V5z"
          ></path>
          <path
            fill="#000"
            fillOpacity="0.1"
            d="M4 7V6h1V5h1v1H5v1H4zm10-2h1v1h1v1h-1V6h-1V5z"
          ></path>
        </g>
        <path fill="rgba(201, 130, 118, 1)" d="M9 12v2h2v-2H9z"></path>
        <path
          fill="rgba(96, 58, 20, 1)"
          fillRule="evenodd"
          d="M3 14.104V11h1v2h1v1l-2 .104zM17 11v3h-2v-1h1v-2h1zM3 8h1V5h1V4h1V3h8v1h1v1h1v3h1V4h-1V3h-1V2H5v1H4v1H3v4z"
          clipRule="evenodd"
        ></path>
        <path
          fill="rgba(152, 151, 137, 1)"
          d="M14 2H6v1H5v1H4v2h14V5h-2V4h-1V3h-1V2z"
        ></path>
        <path
          fill="#fff"
          fillOpacity="0.2"
          d="M5 6h1V5h1V4h1V3H7v1H6v1H5v1z"
        ></path>
        <g>
          <path
            fill="rgba(0, 177, 89, 1)"
            d="M3 20v-3h1v-1h4.027L8 15h4l.011 1H16v1h1v3H3z"
          ></path>
          <path
            fill="#fff"
            fillOpacity="0.2"
            d="M3 20v-3h1v-1h12v1h1v3H3z"
          ></path>
          <path fill="#fff" fillOpacity="0.2" d="M12 20v-1h3v1h-3z"></path>
        </g>
      </g>
    </svg>