<svg xmlns="http://www.w3.org/2000/svg" fill="none" viewBox="0 0 20 20">
      <mask id="avatarsRadiusMask">
        <rect width="20" height="20" fill="#fff" rx="0" ry="0"></rect>
      </mask>
      <g mask="url(#avatarsRadiusMask)">
        <path
          fill="rgba(182, 134, 85, 1)"
          d="M6 4V3h8v1h1v1h1v3h1v3h-1v2h-1v1h-1v1h-2v1h4v1h1v3H3v-3h1v-1h4v-1H6v-1H5v-1H4v-2H3V8h1V5h1V4h1z"
        ></path>
        <path
          fill="#fff"
          fillOpacity="0.1"
          d="M6 3v1H5v1H4v3H3v3h1v2h1v1h1v1h8v-1h1v-1h1v-2h1V8h-1V5h-1V4h-1V3H6z"
        ></path>
        <g fillRule="evenodd" clipRule="evenodd">
          <path fill="#fff" d="M5 8h2v1H5V8zm7 0h2v1h-2V8z"></path>
          <path fill="#000" d="M7 8h1v1H7V8zm7 0h1v1h-1V8z"></path>
        </g>
        <g fillRule="evenodd" clipRule="evenodd">
          <path
            fill="rgba(97, 38, 22, 1)"
            d="M7 5v1H5v1H4V6h1V5h2zm6 0h2v1h1v1h-1V6h-2V5z"
          ></path>
          <path
            fill="#000"
            fillOpacity="0.1"
            d="M7 5v1H5v1H4V6h1V5h2zm6 0h2v1h1v1h-1V6h-2V5z"
          ></path>
        </g>
        <path fill="#fff" d="M8 12v2h4v-2H8z"></path>
        <path
          fill="rgba(97, 38, 22, 1)"
          d="M6 3v1H5v1H4v3h2V7h1V6h4V5h1V4h1v1h-1v1h1v1h1v1h2V5h-1V4h-1V3H6z"
        ></path>
        <path
          fill="rgba(0, 177, 89, 1)"
          d="M3 20v-3h1v-1h5v1h2v-1h5v1h1v3H3z"
        ></path>
        <path
          fill="#fff"
          fillOpacity="0.4"
          fillRule="evenodd"
          d="M3 20v-2h1v1h3v1H3zm14 0v-2h-1v1h-3v1h4z"
          clipRule="evenodd"
        ></path>
        <path
          fill="#fff"
          fillOpacity="0.2"
          d="M7 16H4v1H3v1h1v1h3v1h6v-1h3v-1h1v-1h-1v-1h-3v1H7v-1z"
        ></path>
      </g>
    </svg>